<?xml version="1.0" encoding="UTF-8"?>
<svg id="Layer_1" data-name="Layer 1" xmlns="http://www.w3.org/2000/svg" viewBox="0 0 220 60">
  <defs>
    <style>
      .cls-1 {
        fill: #facc15;
      }

      .cls-2 {
        fill: #7c3aed;
      }
    </style>
  </defs>
  <g>
    <path d="M78.13,45.81c-2.77,0-5.26-.62-7.48-1.85-2.22-1.23-3.97-3.03-5.26-5.38-1.29-2.36-1.93-5.21-1.93-8.57s.64-6.24,1.93-8.6c1.29-2.36,3.04-4.16,5.26-5.39,2.22-1.23,4.71-1.85,7.48-1.85s5.24.62,7.45,1.85c2.21,1.23,3.96,3.03,5.26,5.39,1.29,2.36,1.94,5.23,1.94,8.6s-.65,6.22-1.94,8.57c-1.29,2.36-3.05,4.15-5.26,5.38s-4.69,1.85-7.45,1.85ZM78.13,39.39c1.49,0,2.77-.36,3.84-1.08s1.9-1.78,2.48-3.18.87-3.1.87-5.11-.29-3.74-.87-5.14-1.4-2.47-2.48-3.19-2.36-1.08-3.84-1.08-2.77.36-3.84,1.08-1.9,1.79-2.49,3.19c-.59,1.4-.88,3.12-.88,5.14s.29,3.72.88,5.11c.59,1.4,1.42,2.46,2.49,3.18s2.36,1.08,3.84,1.08Z"/>
    <path d="M115.53,26.32c-.65-1.3-1.56-2.31-2.74-3.02-1.18-.71-2.57-1.06-4.18-1.06-2.05,0-3.69.56-4.91,1.68-.94.87-1.69,1.97-2.26,3.28l-.08-4.63h-6.84v22.81h7.19v-12.89c0-.92.16-1.7.49-2.33.32-.63.78-1.12,1.36-1.46.59-.34,1.26-.51,2.03-.51,1.17,0,2.08.36,2.74,1.08.65.72.98,1.73.98,3.03v13.08h7.19v-14.48c0-1.75-.32-3.27-.97-4.58Z"/>
    <path d="M118.99,45.38V14.6h21.2v6.03h-13.88v7.52h12.64v5.89h-12.64v11.34h-7.31Z"/>
    <path d="M148.88,14.6v30.78h-7.19V14.6h7.19Z"/>
    <path d="M172.9,33.89c0-1.86-.27-3.51-.82-4.95-.54-1.44-1.31-2.66-2.31-3.66-1-1-2.18-1.76-3.53-2.27s-2.85-.77-4.47-.77c-2.27,0-4.26.5-5.96,1.49s-3.02,2.37-3.95,4.14c-.93,1.77-1.39,3.83-1.39,6.17s.46,4.5,1.39,6.26,2.26,3.13,4,4.09,3.79,1.45,6.16,1.45c1.86,0,3.52-.28,4.98-.85s2.67-1.35,3.63-2.37,1.61-2.19,1.97-3.54l-6.4-.83c-.19.51-.48.94-.86,1.29s-.84.62-1.37.81-1.14.28-1.8.28c-.94,0-1.76-.2-2.46-.59s-1.24-.98-1.62-1.76c-.34-.7-.52-1.56-.55-2.55h15.38v-1.84ZM159.49,28.08c.65-.41,1.43-.61,2.36-.61s1.72.2,2.36.6c.63.4,1.12.98,1.45,1.72.22.51.36,1.08.44,1.72h-8.52c.07-.64.22-1.23.45-1.74.34-.73.83-1.3,1.48-1.7Z"/>
    <path d="M195.92,33.89c0-1.86-.27-3.51-.82-4.95-.54-1.44-1.31-2.66-2.31-3.66-1-1-2.18-1.76-3.53-2.27s-2.85-.77-4.47-.77c-2.27,0-4.26.5-5.96,1.49s-3.02,2.37-3.95,4.14c-.93,1.77-1.39,3.83-1.39,6.17s.46,4.5,1.39,6.26,2.26,3.13,4,4.09,3.79,1.45,6.16,1.45c1.86,0,3.52-.28,4.98-.85s2.67-1.35,3.63-2.37,1.61-2.19,1.97-3.54l-6.4-.83c-.19.51-.48.94-.86,1.29s-.84.62-1.37.81-1.14.28-1.8.28c-.94,0-1.76-.2-2.46-.59s-1.24-.98-1.62-1.76c-.34-.7-.52-1.56-.55-2.55h15.38v-1.84ZM182.51,28.08c.65-.41,1.43-.61,2.36-.61s1.72.2,2.36.6c.63.4,1.12.98,1.45,1.72.22.51.36,1.08.44,1.72h-8.52c.07-.64.22-1.23.45-1.74.34-.73.83-1.3,1.48-1.7Z"/>
    <polygon points="211.7 45.38 220 45.38 211.45 32.52 219.67 22.57 211.47 22.57 204.86 30.77 204.59 30.77 204.59 14.6 197.4 14.6 197.4 45.38 204.59 45.38 204.59 38.48 206.1 36.68 211.7 45.38"/>
  </g>
  <g>
    <path class="cls-2" d="M24.61,19.94c.53-1.29,1.79-2.13,3.18-2.13h20.29c.94,0,1.78-.58,2.13-1.45l2.52-6.41c.59-1.5-.52-3.12-2.13-3.12h-30.85c-.92,0-1.75.55-2.11,1.4L.18,50c-.63,1.51.48,3.17,2.11,3.17h7.04c.92,0,1.76-.56,2.11-1.41l6.12-14.78c.35-.85,1.19-1.41,2.11-1.41h21.44c.94,0,1.78-.58,2.13-1.45l2.49-6.34c.59-1.49-.5-3.11-2.11-3.12l-20.89-.2.04-.1,1.83-4.41Z"/>
    <path class="cls-1" d="M25.04,42.35h14.96l-3.39,8.63c-.52,1.32-1.79,2.19-3.21,2.19h-12.51l4.13-10.81Z"/>
  </g>
</svg>